<mxfile host="app.diagrams.net" modified="2023-09-22T12:31:56.981Z" agent="Mozilla/5.0 (Windows NT 10.0; Win64; x64) AppleWebKit/537.36 (KHTML, like Gecko) Chrome/116.0.0.0 Safari/537.36" etag="iA5Njw0HwQqIiQIpVV5N" version="21.8.0" type="device">
  <diagram name="Page-1" id="0A_bDV2b6-4k6jsNSAsV">
    <mxGraphModel dx="794" dy="471" grid="1" gridSize="10" guides="1" tooltips="1" connect="1" arrows="1" fold="1" page="1" pageScale="1" pageWidth="850" pageHeight="1100" math="0" shadow="0">
      <root>
        <mxCell id="0" />
        <mxCell id="1" parent="0" />
        <mxCell id="c849PaAZQ4ik_Zr1xFz_-7" value="Agriculture Data" style="ellipse;whiteSpace=wrap;html=1;" vertex="1" parent="1">
          <mxGeometry x="50" y="160" width="120" height="80" as="geometry" />
        </mxCell>
        <mxCell id="c849PaAZQ4ik_Zr1xFz_-9" value="Data Cleaning&amp;nbsp;&lt;br&gt;Normalization&lt;br&gt;Missing Values" style="ellipse;whiteSpace=wrap;html=1;" vertex="1" parent="1">
          <mxGeometry x="210" y="50" width="120" height="80" as="geometry" />
        </mxCell>
        <mxCell id="c849PaAZQ4ik_Zr1xFz_-10" value="Crop, &lt;br&gt;Fertilizer,&lt;br&gt;Plant Disease,&lt;br&gt;Crop Price" style="ellipse;whiteSpace=wrap;html=1;" vertex="1" parent="1">
          <mxGeometry x="410" y="20" width="120" height="80" as="geometry" />
        </mxCell>
        <mxCell id="c849PaAZQ4ik_Zr1xFz_-11" value="Model Training&lt;br&gt;Hyperparameter Tuning&lt;br&gt;Vaildation" style="ellipse;whiteSpace=wrap;html=1;" vertex="1" parent="1">
          <mxGeometry x="600" y="90" width="120" height="80" as="geometry" />
        </mxCell>
        <mxCell id="c849PaAZQ4ik_Zr1xFz_-12" value="Web App, User Interface, Real time data integration" style="ellipse;whiteSpace=wrap;html=1;" vertex="1" parent="1">
          <mxGeometry x="660" y="240" width="120" height="80" as="geometry" />
        </mxCell>
        <mxCell id="c849PaAZQ4ik_Zr1xFz_-13" value="Weather APIs&lt;br&gt;External Data" style="ellipse;whiteSpace=wrap;html=1;" vertex="1" parent="1">
          <mxGeometry x="520" y="350" width="120" height="80" as="geometry" />
        </mxCell>
        <mxCell id="c849PaAZQ4ik_Zr1xFz_-14" value="Cloud Deployment&amp;nbsp;&lt;br&gt;Monitoring" style="ellipse;whiteSpace=wrap;html=1;" vertex="1" parent="1">
          <mxGeometry x="20" y="610" width="120" height="80" as="geometry" />
        </mxCell>
        <mxCell id="c849PaAZQ4ik_Zr1xFz_-15" value="Impact Analysis&lt;br&gt;Assessment" style="ellipse;whiteSpace=wrap;html=1;" vertex="1" parent="1">
          <mxGeometry x="390" y="700" width="120" height="80" as="geometry" />
        </mxCell>
        <mxCell id="c849PaAZQ4ik_Zr1xFz_-16" value="Collaboration&lt;br&gt;Partnership" style="ellipse;whiteSpace=wrap;html=1;" vertex="1" parent="1">
          <mxGeometry x="590" y="620" width="120" height="80" as="geometry" />
        </mxCell>
        <mxCell id="c849PaAZQ4ik_Zr1xFz_-17" value="Feedback Loop&lt;br&gt;Model Updates" style="ellipse;whiteSpace=wrap;html=1;" vertex="1" parent="1">
          <mxGeometry x="320" y="420" width="120" height="80" as="geometry" />
        </mxCell>
        <mxCell id="c849PaAZQ4ik_Zr1xFz_-18" value="Data Encryption&lt;br&gt;Access Control" style="ellipse;whiteSpace=wrap;html=1;" vertex="1" parent="1">
          <mxGeometry x="120" y="480" width="120" height="80" as="geometry" />
        </mxCell>
        <mxCell id="c849PaAZQ4ik_Zr1xFz_-19" value="User Training&lt;br&gt;Resources" style="ellipse;whiteSpace=wrap;html=1;" vertex="1" parent="1">
          <mxGeometry x="180" y="720" width="120" height="80" as="geometry" />
        </mxCell>
        <mxCell id="c849PaAZQ4ik_Zr1xFz_-21" value="" style="html=1;shadow=0;dashed=0;align=center;verticalAlign=middle;shape=mxgraph.arrows2.jumpInArrow;dy=9.94;dx=39.55;arrowHead=55;rotation=-30;" vertex="1" parent="1">
          <mxGeometry x="140" y="100" width="80" height="50" as="geometry" />
        </mxCell>
        <mxCell id="c849PaAZQ4ik_Zr1xFz_-22" value="" style="html=1;shadow=0;dashed=0;align=center;verticalAlign=middle;shape=mxgraph.arrows2.jumpInArrow;dy=10.5;dx=42.67;arrowHead=55;" vertex="1" parent="1">
          <mxGeometry x="330" y="30" width="80" height="60" as="geometry" />
        </mxCell>
        <mxCell id="c849PaAZQ4ik_Zr1xFz_-23" value="" style="html=1;shadow=0;dashed=0;align=center;verticalAlign=middle;shape=mxgraph.arrows2.jumpInArrow;dy=10.62;dx=36.61;arrowHead=55;rotation=30;" vertex="1" parent="1">
          <mxGeometry x="530" y="50" width="80" height="70" as="geometry" />
        </mxCell>
        <mxCell id="c849PaAZQ4ik_Zr1xFz_-24" value="" style="html=1;shadow=0;dashed=0;align=center;verticalAlign=middle;shape=mxgraph.arrows2.jumpInArrow;dy=15;dx=38;arrowHead=55;rotation=75;" vertex="1" parent="1">
          <mxGeometry x="670" y="165" width="80" height="70" as="geometry" />
        </mxCell>
        <mxCell id="c849PaAZQ4ik_Zr1xFz_-25" value="" style="html=1;shadow=0;dashed=0;align=center;verticalAlign=middle;shape=mxgraph.arrows2.jumpInArrow;dy=15;dx=38;arrowHead=55;rotation=-195;" vertex="1" parent="1">
          <mxGeometry x="640" y="330" width="80" height="70" as="geometry" />
        </mxCell>
        <mxCell id="c849PaAZQ4ik_Zr1xFz_-26" value="" style="html=1;shadow=0;dashed=0;align=center;verticalAlign=middle;shape=mxgraph.arrows2.jumpInArrow;dy=15;dx=38;arrowHead=55;rotation=-180;" vertex="1" parent="1">
          <mxGeometry x="450" y="410" width="80" height="70" as="geometry" />
        </mxCell>
        <mxCell id="c849PaAZQ4ik_Zr1xFz_-27" value="" style="html=1;shadow=0;dashed=0;align=center;verticalAlign=middle;shape=mxgraph.arrows2.jumpInArrow;dy=15;dx=38;arrowHead=55;rotation=-195;" vertex="1" parent="1">
          <mxGeometry x="240" y="460" width="80" height="70" as="geometry" />
        </mxCell>
        <mxCell id="c849PaAZQ4ik_Zr1xFz_-30" value="" style="html=1;verticalLabelPosition=bottom;align=center;labelBackgroundColor=#ffffff;verticalAlign=top;strokeWidth=1;strokeColor=#1b1c1d;shadow=0;dashed=0;shape=mxgraph.ios7.icons.back;rotation=-75;" vertex="1" parent="1">
          <mxGeometry x="68.54" y="541.12" width="70" height="70" as="geometry" />
        </mxCell>
        <mxCell id="c849PaAZQ4ik_Zr1xFz_-31" value="" style="html=1;verticalLabelPosition=bottom;align=center;labelBackgroundColor=#ffffff;verticalAlign=top;strokeWidth=1;strokeColor=#1b1c1d;shadow=0;dashed=0;shape=mxgraph.ios7.icons.back;rotation=-165;" vertex="1" parent="1">
          <mxGeometry x="120" y="680" width="70" height="70" as="geometry" />
        </mxCell>
        <mxCell id="c849PaAZQ4ik_Zr1xFz_-32" value="" style="html=1;verticalLabelPosition=bottom;align=center;labelBackgroundColor=#ffffff;verticalAlign=top;strokeWidth=1;strokeColor=#1b1c1d;shadow=0;dashed=0;shape=mxgraph.ios7.icons.back;rotation=-220;" vertex="1" parent="1">
          <mxGeometry x="320" y="740" width="70" height="70" as="geometry" />
        </mxCell>
        <mxCell id="c849PaAZQ4ik_Zr1xFz_-33" value="" style="html=1;verticalLabelPosition=bottom;align=center;labelBackgroundColor=#ffffff;verticalAlign=top;strokeWidth=1;strokeColor=#1b1c1d;shadow=0;dashed=0;shape=mxgraph.ios7.icons.back;rotation=135;" vertex="1" parent="1">
          <mxGeometry x="530" y="680" width="70" height="70" as="geometry" />
        </mxCell>
        <mxCell id="c849PaAZQ4ik_Zr1xFz_-34" value="Data Collection" style="text;html=1;strokeColor=none;fillColor=none;align=center;verticalAlign=middle;whiteSpace=wrap;rounded=0;" vertex="1" parent="1">
          <mxGeometry x="90" y="250" width="60" height="30" as="geometry" />
        </mxCell>
        <mxCell id="c849PaAZQ4ik_Zr1xFz_-35" value="Data Processing" style="text;html=1;strokeColor=none;fillColor=none;align=center;verticalAlign=middle;whiteSpace=wrap;rounded=0;" vertex="1" parent="1">
          <mxGeometry x="240" y="140" width="60" height="30" as="geometry" />
        </mxCell>
        <mxCell id="c849PaAZQ4ik_Zr1xFz_-36" value="ML/DL Mpdels" style="text;html=1;strokeColor=none;fillColor=none;align=center;verticalAlign=middle;whiteSpace=wrap;rounded=0;" vertex="1" parent="1">
          <mxGeometry x="425" y="120" width="60" height="30" as="geometry" />
        </mxCell>
        <mxCell id="c849PaAZQ4ik_Zr1xFz_-37" value="Training and Validation" style="text;html=1;strokeColor=none;fillColor=none;align=center;verticalAlign=middle;whiteSpace=wrap;rounded=0;" vertex="1" parent="1">
          <mxGeometry x="560" y="170" width="60" height="30" as="geometry" />
        </mxCell>
        <mxCell id="c849PaAZQ4ik_Zr1xFz_-38" value="Application Development" style="text;html=1;strokeColor=none;fillColor=none;align=center;verticalAlign=middle;whiteSpace=wrap;rounded=0;" vertex="1" parent="1">
          <mxGeometry x="590" y="265" width="60" height="30" as="geometry" />
        </mxCell>
        <mxCell id="c849PaAZQ4ik_Zr1xFz_-39" value="Integration with external data" style="text;html=1;strokeColor=none;fillColor=none;align=center;verticalAlign=middle;whiteSpace=wrap;rounded=0;" vertex="1" parent="1">
          <mxGeometry x="560" y="445" width="60" height="30" as="geometry" />
        </mxCell>
        <mxCell id="c849PaAZQ4ik_Zr1xFz_-40" value="User Feedback and continuous inprovement" style="text;html=1;strokeColor=none;fillColor=none;align=center;verticalAlign=middle;whiteSpace=wrap;rounded=0;" vertex="1" parent="1">
          <mxGeometry x="350" y="530" width="60" height="30" as="geometry" />
        </mxCell>
        <mxCell id="c849PaAZQ4ik_Zr1xFz_-41" value="Data Security and privacy" style="text;html=1;strokeColor=none;fillColor=none;align=center;verticalAlign=middle;whiteSpace=wrap;rounded=0;" vertex="1" parent="1">
          <mxGeometry x="170" y="570" width="60" height="30" as="geometry" />
        </mxCell>
        <mxCell id="c849PaAZQ4ik_Zr1xFz_-42" value="Scaling and deployment" style="text;html=1;strokeColor=none;fillColor=none;align=center;verticalAlign=middle;whiteSpace=wrap;rounded=0;" vertex="1" parent="1">
          <mxGeometry x="40" y="710" width="60" height="30" as="geometry" />
        </mxCell>
        <mxCell id="c849PaAZQ4ik_Zr1xFz_-43" value="Evaluation and Training" style="text;html=1;strokeColor=none;fillColor=none;align=center;verticalAlign=middle;whiteSpace=wrap;rounded=0;" vertex="1" parent="1">
          <mxGeometry x="210" y="810" width="60" height="30" as="geometry" />
        </mxCell>
      </root>
    </mxGraphModel>
  </diagram>
</mxfile>
